# xmcd CD database file
#
# Track frame offsets:
#	150
#	22660
#	41872
#	65945
#	85272
#	104800
#	122160
#	139042
#	156072
#
# Disc length: 2342 seconds
#
# Revision: 0
# Processed by: cddbd v1.5.2PL0 Copyright (c) Steve Scherf et al.
# Submitted via: CDex 1.70beta3
#
DISCID=7c092409
DTITLE=Sonny Stitt - 37 Minutes And 48 Seconds
DYEAR=1956
DGENRE=Jazz
TTITLE0=Because Of You
TTITLE1=Blue Moon
TTITLE2=Windy Ride
TTITLE3=But Not For Me
TTITLE4=What Is This Thing Called Love
TTITLE5=Harlem Nocturne
TTITLE6=Sweet Georgia Brown
TTITLE7=Blues For Yard
TTITLE8=Scrapple From The Apple
EXTD=YEAR: 1956
EXTT0=
EXTT1=
EXTT2=
EXTT3=
EXTT4=
EXTT5=
EXTT6=
EXTT7=
EXTT8=
PLAYORDER=
